<svg width="56" height="56" viewBox="0 0 56 56" fill="none" xmlns="http://www.w3.org/2000/svg">
<path d="M36.0929 21.8554L24.8823 33.066L19.2004 27.2762C18.8136 26.8821 18.1805 26.8761 17.7863 27.2629C17.3921 27.6498 17.3862 28.2829 17.773 28.6771L23.8963 34.9167C23.9459 34.9671 23.9995 35.0113 24.0561 35.049C24.0901 35.0984 24.1292 35.1455 24.1731 35.1894C24.5636 35.5799 25.1968 35.5799 25.5873 35.1894L37.5071 23.2696C37.8977 22.8791 37.8977 22.2459 37.5071 21.8554C37.1166 21.4649 36.4834 21.4649 36.0929 21.8554Z" fill="#00D096"/>
<path fill-rule="evenodd" clip-rule="evenodd" d="M0.5 28.0625C0.5 12.8747 12.8122 0.5625 28 0.5625C43.1878 0.5625 55.5 12.8747 55.5 28.0625C55.5 43.2503 43.1878 55.5625 28 55.5625C12.8122 55.5625 0.5 43.2503 0.5 28.0625ZM28 53.5625C13.9167 53.5625 2.5 42.1458 2.5 28.0625C2.5 13.9792 13.9167 2.5625 28 2.5625C42.0833 2.5625 53.5 13.9792 53.5 28.0625C53.5 42.1458 42.0833 53.5625 28 53.5625Z" fill="#00D096"/>
</svg>
