<?xml version="1.0" encoding="UTF-8" standalone="no"?>
<!DOCTYPE svg PUBLIC "-//W3C//DTD SVG 1.1//EN" "http://www.w3.org/Graphics/SVG/1.1/DTD/svg11.dtd">
<!-- Created with Vectornator (http://vectornator.io/) -->
<svg height="100%" stroke-miterlimit="10" style="fill-rule:nonzero;clip-rule:evenodd;stroke-linecap:round;stroke-linejoin:round;" version="1.1" viewBox="0.499998 0.5 51.1686 52.5636" width="100%" xml:space="preserve" xmlns="http://www.w3.org/2000/svg" xmlns:vectornator="http://vectornator.io" xmlns:xlink="http://www.w3.org/1999/xlink">
<defs/>
<g id="cart" vectornator:layerName="cart">
<path d="M12.3103 43.2513L35.0436 43.2513C35.8562 43.2518 36.643 42.9644 37.264 42.4399C37.8848 41.9155 38.2998 41.1882 38.4353 40.3868L44.3936 4.86586C44.5313 4.0487 44.9599 3.30884 45.5999 2.78249C46.24 2.25611 47.0485 1.97868 47.8769 2.00128L50.1686 2.00128M39.8107 32.9386L12.0358 32.9386C10.5153 32.9235 9.04265 32.4047 7.84842 31.4635C6.65419 30.5221 5.80572 29.2115 5.43578 27.7365L2.04411 14.4449C1.98645 14.1918 1.9853 13.9292 2.04076 13.6757C2.09622 13.4222 2.20691 13.184 2.36494 12.9782C2.52506 12.772 2.73003 12.605 2.9643 12.4899C3.19856 12.3747 3.45598 12.3144 3.71703 12.3136L43.2024 12.3136M14.5603 48.0636C14.5603 48.9919 14.929 49.8821 15.5854 50.5385C16.2418 51.1949 17.132 51.5636 18.0603 51.5636C18.9885 51.5636 19.8788 51.1949 20.5351 50.5385C21.1915 49.8821 21.5603 48.9919 21.5603 48.0636C21.5603 47.1354 21.1915 46.2451 20.5351 45.5887C19.8788 44.9324 18.9885 44.5636 18.0603 44.5636C17.132 44.5636 16.2418 44.9324 15.5854 45.5887C14.929 46.2451 14.5603 47.1354 14.5603 48.0636ZM28.5603 48.0636C28.5603 48.9919 28.929 49.8821 29.5854 50.5385C30.2418 51.1949 31.132 51.5636 32.0603 51.5636C32.9885 51.5636 33.8788 51.1949 34.5351 50.5385C35.1915 49.8821 35.5603 48.9919 35.5603 48.0636C35.5603 47.1354 35.1915 46.2451 34.5351 45.5887C33.8788 44.9324 32.9885 44.5636 32.0603 44.5636C31.132 44.5636 30.2418 44.9324 29.5854 45.5887C28.929 46.2451 28.5603 47.1354 28.5603 48.0636Z" fill="none" opacity="1" stroke="#000000" stroke-linecap="round" stroke-linejoin="round" stroke-width="3" vectornator:layerName="path"/>
</g>
</svg>
